<svg width="36" height="36" viewBox="0 0 36 36" fill="none" xmlns="http://www.w3.org/2000/svg">
<g clip-path="url(#clip0_83_243)">
<path d="M10.6759 23.8667C9.51091 25.7833 8.40831 27.5628 7.34966 29.3612C7.11724 29.7548 6.8508 29.8856 6.36186 29.8805C4.28565 29.8579 2.21085 29.8705 0 29.8705C0.143138 29.6051 0.238091 29.4089 0.352886 29.219C2.51272 25.6374 4.66688 22.0533 6.84655 18.4804C7.08039 18.0981 7.0563 17.8189 6.83096 17.4492C4.64278 13.8575 2.47587 10.2557 0.303283 6.65648C0.216833 6.51311 0.140304 6.36472 0.0127549 6.13458C0.337296 6.11948 0.581057 6.09811 0.824817 6.09811C2.66719 6.09559 4.50957 6.11445 6.35052 6.08553C6.87489 6.07673 7.14133 6.23896 7.38367 6.64265C10.7666 12.2792 14.1679 17.9069 17.5663 23.536C17.6868 23.7359 17.8186 23.9321 17.9986 24.21C18.2197 23.8491 18.3997 23.5611 18.574 23.2719C19.5518 21.647 20.5198 20.0159 21.5161 18.3999C21.7088 18.0868 21.7018 17.8592 21.509 17.5448C19.2386 13.826 16.9938 10.0935 14.7206 6.37603C14.5023 6.01888 14.4811 5.75101 14.6993 5.39637C15.7183 3.74262 16.7089 2.07631 17.7137 0.416278C17.7888 0.290518 17.888 0.176076 18.0184 -0.00250244C20.4475 4.0281 22.8469 8.00714 25.3071 12.0906C26.139 10.7223 26.9072 9.46092 27.6739 8.19829C27.9205 7.79335 28.2167 7.40349 28.3981 6.97717C28.6985 6.27165 29.1846 6.04151 30.0534 6.07421C31.9836 6.14589 33.9195 6.09685 36.0014 6.09685C35.8186 6.41376 35.6896 6.64516 35.5522 6.87279C33.4249 10.3991 31.3048 13.9279 29.1563 17.4429C28.9097 17.8453 28.9253 18.1371 29.1648 18.5282C31.3445 22.101 33.5 25.6839 35.6613 29.2656C35.7591 29.4278 35.8413 29.5963 35.9646 29.8214C35.7307 29.8403 35.555 29.8654 35.3793 29.8654C33.4434 29.8692 31.506 29.8554 29.5701 29.878C29.101 29.8843 28.8573 29.7447 28.6418 29.3775C27.6937 27.7615 26.7073 26.1643 25.7337 24.5609C25.6147 24.3647 25.4857 24.1748 25.2958 23.8831C22.8454 27.9476 20.4461 31.9254 17.9901 35.9975C15.5397 31.9329 13.1418 27.9564 10.6744 23.8642L10.6759 23.8667Z" fill="#FF4654"/>
</g>
<defs>
<clipPath id="clip0_83_243">
<rect width="36" height="36" fill="white"/>
</clipPath>
</defs>
</svg>
