<svg width="36" height="36" viewBox="0 0 36 36" fill="none" xmlns="http://www.w3.org/2000/svg">
<g clip-path="url(#clip0_83_174)">
<path d="M10.6759 23.8668C9.51091 25.7833 8.40831 27.5628 7.34966 29.3612C7.11724 29.7548 6.8508 29.8856 6.36186 29.8806C4.28565 29.858 2.21085 29.8705 0 29.8705C0.143138 29.6052 0.238091 29.409 0.352886 29.2191C2.51272 25.6375 4.66688 22.0533 6.84655 18.4805C7.08039 18.0982 7.0563 17.819 6.83096 17.4492C4.64278 13.8575 2.47587 10.2558 0.303283 6.65654C0.216833 6.51317 0.140304 6.36478 0.0127549 6.13464C0.337296 6.11955 0.581057 6.09817 0.824817 6.09817C2.66719 6.09565 4.50957 6.11452 6.35052 6.08559C6.87489 6.07679 7.14133 6.23902 7.38367 6.64271C10.7666 12.2793 14.1679 17.907 17.5663 23.536C17.6868 23.736 17.8186 23.9322 17.9986 24.2101C18.2197 23.8492 18.3997 23.5612 18.574 23.2719C19.5518 21.6471 20.5198 20.016 21.5161 18.4C21.7088 18.0868 21.7018 17.8592 21.509 17.5448C19.2386 13.8261 16.9938 10.0936 14.7206 6.3761C14.5023 6.01894 14.4811 5.75107 14.6993 5.39643C15.7183 3.74269 16.7089 2.07637 17.7137 0.416339C17.7888 0.290579 17.888 0.176137 18.0184 -0.00244141C20.4475 4.02816 22.8469 8.0072 25.3071 12.0906C26.139 10.7224 26.9072 9.46098 27.6739 8.19835C27.9205 7.79341 28.2167 7.40355 28.3981 6.97723C28.6985 6.27171 29.1846 6.04157 30.0534 6.07427C31.9836 6.14595 33.9195 6.09691 36.0014 6.09691C35.8186 6.41382 35.6896 6.64522 35.5522 6.87285C33.4249 10.3992 31.3048 13.928 29.1563 17.443C28.9097 17.8454 28.9253 18.1372 29.1648 18.5283C31.3445 22.1011 33.5 25.684 35.6613 29.2656C35.7591 29.4279 35.8413 29.5964 35.9646 29.8215C35.7307 29.8404 35.555 29.8655 35.3793 29.8655C33.4434 29.8693 31.506 29.8554 29.5701 29.8781C29.101 29.8844 28.8573 29.7448 28.6418 29.3776C27.6937 27.7615 26.7073 26.1644 25.7337 24.561C25.6147 24.3648 25.4857 24.1749 25.2958 23.8831C22.8454 27.9477 20.4461 31.9255 17.9901 35.9976C15.5397 31.933 13.1418 27.9565 10.6744 23.8643L10.6759 23.8668Z" fill="#111823"/>
</g>
<defs>
<clipPath id="clip0_83_174">
<rect width="36" height="36" fill="white"/>
</clipPath>
</defs>
</svg>
